# xmcd CD database file
# Copyright (C) 1993-1998 Ti Kan
#
# Track frame offsets:
#	150
#	10295
#	22687
#	35595
#	46875
#	59565
#	68522
#	81347
#	90429
#	100762
#	110852
#	124762
#	138042
#	159775
#	171327
#	182420
#	195665
#	209137
#	220042
#	233175
#
# Disc length: 3277 seconds
#
# Revision: 1
# Processed by: cddbd v1.4b41PL1 Copyright (c) Steve Scherf et al.
# Submitted via: CDValet v3.31 - Copyright (c) 1997 Greg Leichner
#
DISCID=090ccb14
DTITLE=Little Walter - Blues With A Feeling - Disk 2
DYEAR=1900
DGENRE=
TTITLE0=Temperature (alternate)
TTITLE1=Shake Dancer
TTITLE2=Ah'w Baby (alternate)
TTITLE3=Rock Bottom (alternate)
TTITLE4=You Gonna Be Sorry (Someday Baby)
TTITLE5=Baby
TTITLE6=My Baby Is Sweeter (alternate)
TTITLE7=Crazy Mixed Up World (alternate)
TTITLE8=Worried Life Blues
TTITLE9=Everything's Gonna Be Alright (alternate)
TTITLE10=Mean Old Frisco (alternate)
TTITLE11=One Of These Mornings
TTITLE12=Blue and Lonesome (alternate)
TTITLE13=Me And Piney Brown
TTITLE14=Break It Up
TTITLE15=Going Down Slow
TTITLE16=You're Sweet
TTITLE17=You Don't Know
TTITLE18=I'm A Businessman
TTITLE19=Chicken Shack
EXTD=
EXTT0=
EXTT1=
EXTT2=
EXTT3=
EXTT4=
EXTT5=
EXTT6=
EXTT7=
EXTT8=
EXTT9=
EXTT10=
EXTT11=
EXTT12=
EXTT13=
EXTT14=
EXTT15=
EXTT16=
EXTT17=
EXTT18=
EXTT19=
PLAYORDER=
